<mxfile host="app.diagrams.net" modified="2024-06-02T21:43:24.249Z" agent="Mozilla/5.0 (X11; Linux x86_64) AppleWebKit/537.36 (KHTML, like Gecko) Chrome/124.0.0.0 Safari/537.36" etag="nlCfLIWum8aCg6mxGQ3D" version="24.4.13" type="github">
  <diagram name="Page-1" id="lUpCP86oEtXq3PmRO90s">
    <mxGraphModel dx="941" dy="606" grid="1" gridSize="10" guides="1" tooltips="1" connect="1" arrows="1" fold="1" page="1" pageScale="1" pageWidth="850" pageHeight="1100" math="0" shadow="0">
      <root>
        <mxCell id="0" />
        <mxCell id="1" parent="0" />
        <mxCell id="WERZg9Btn-QXgwrThbyL-16" value="" style="rounded=0;whiteSpace=wrap;html=1;" vertex="1" parent="1">
          <mxGeometry x="10" y="60" width="180" height="370" as="geometry" />
        </mxCell>
        <mxCell id="WERZg9Btn-QXgwrThbyL-1" value="" style="shape=image;verticalLabelPosition=bottom;labelBackgroundColor=default;verticalAlign=top;aspect=fixed;imageAspect=0;image=data:image/png,iVBORw0KGgoAAAANSUhEUgAAAHcAAACiCAYAAAB7ylIWAAAABHNCSVQICAgIfAhkiAAAABl0RVh0U29mdHdhcmUAZ25vbWUtc2NyZWVuc2hvdO8Dvz4AAAAodEVYdENyZWF0aW9uIFRpbWUAZGltLiAwMiBqdWluIDIwMjQgMjI6MDk6Mznn3/pPAAAgAElEQVR4nMy9+bMlx3Xn9zkns6ru+vbXC7rRaKIBEiBAghRBjjjSaDRj2TP2WD84HHY4wn+Jh/pB/4vDP/gHjx122GONRoutGYk0SVAEQOxbd6PR69vvVlWZefxD1r3vNdAAgaY9UkbcuPe9W7eqMk+e/XtOiZkZX2pY95LVX8vPyyF8mbE8z5lfmTz05/I4O/svO/OlnJ7h4TPZmXc5++vP3sLn3fSnb+2hmcojDzs7vtwa/IcZ/ssdZmCBJXGTCEZ+nZ22IqsFPrsJzEAkvysJiN05O8KaA3R5EsCIRAzDBByKWkdR6c4rkMiv0+sbQgIMse7eTEGFmAwRQZd7y5a3kEBAVPOJlickfxclgoCiiAmWb/ChvfbwRztdkS/aRP8BxpckLqtFZUXQ/JLurpXP39cisloM6361ojiezy6E4FASCUNQFIsBsW5jqWIioKfXjakmfYqwikOdy/enZ84fDTNDnCBOOu7suF1Ob18EEMMwtNt8cnrkQyP/zz6zuf8uh3wZsXx2s3/mBJyKTclnPHNk/py6ZX/4Vx23dodaWn6TTrkPQczlT/5T9LeIWIQU8kZxCtK9urNkSZHvqW1rnFOc+uUdEy3RWCCmROV7CIIz7aZgmESiZinjKU5n+ykV8Vklccrhq6//Ljg3pZR3sXz+1U2EKKeaTKzbpWfmZJb3v2inpyTld4tZhNry11l4fnrC3gEkhNhxgMviuts0bYIoljlZyFyJ4FQzcaOB85hotzXy+ZMlLCVMHUl1JWmWIh8RRJRIREwhgXbzy/ef1ydZROiutTpLN/nuXIbk86nm9TAhdfevD236zw4RYcln+pCYefzhU0osCfx5I4kSJXOQWkJJ+d1OxZAtiaaCdaIMSWARscyBYrrkx7wgxHwMEfOJZC2WQl4/80gqsFQQk+EqxVQJIiRdqlLFmeIE2ghEiAlSt47OoDAQUaQqqIEYAjE0JGtRFbx3eOeIIeFMsJSljCw1eqeT27SUPZ2lYUuLw05NP9WO1IKJrmwSM+uO//w1ds6RUkJEVq/fdHgzI8b4xSezMxOwTAyxCKRuakIywdRhUR8irgAkwy8NGMtLl/8dMUmYRtoU8+9EUVeB9jBTQoDQ2V9tgLnBPME8QAidnRezkIdTm6v0MKhgVClFAdM5qIeq8DjvUSDGRAwtdR0p1WGp4xyzPEdJmERMlNCtwZJIpwTurGlVLFmndY28Mc7cFF/Et5BSIsb4Ga79dVL1i4bP4uOLTyBkLsAscy0RtW7yZLGdv7FMbpMsu01WOjlJtmRF8vWWGyZheWO4HkE8QQtagTrCZA5Hs0yYT24dMGuNvdmC+ycn3D864eDoiNnJhFDX9J3iMbxTisLT6/UZDIcMh2N6lePqk+cYDQp2Nsdsrzs2BjDwSikVXiAlUItEM8wiWdpnIuV5uWzEIVlGPbRmhq44dUWWh4h/1rN41FjS4awE/dJe6ueML+0KuVMhky3UpXuarajVxPNcTvWxSia0aOr0smAmWFIiSkBoxRNVmbRwMIc7R5Hrdw547+Zt3r9xi3t7ExYzJYknuUiSiGjWzwWGTwFvWRI0TSLMoDkqaKWidX1UHeEnv6TnYX084ML2Olef2OHZJy/yzMUdzq/DuIAChwO8eoQGxdBO1CKn2ho4w5WdHSGn/sKpo5g6KbBy/r7S+E1Fs8xmM/t1JxHL7giW/V2RTp9q1m8REFcQE4QQSSmCGU7BO0W9EdIie66pAO0jvk8rcFLDcQP3TuC1d2/x0199wHuf3Gd/HqhRtOrhqzFmAwqBSido8wCt79OzKdt9z86wpK+Gk8SiaThu4ETG3G9L7rd9rFzHi0dMqBdzvMC4dGgzZbMSnr20yw++/RxXL27x9JMFG2W2z9r5AkdNzyuVKwl1k4Vup8qqqsK5gulsQVX2WepXOjmW7ZOs8pY2yxcRcilBi6L4/8So+nLEJTvx2fTr9GnnxaTO7F3UDVVVdccbhXekGGmaOcEC5bjHIhox9TBXURvc2oNffXCH92494Me/fJtZqpjEknnyBFeSvMdc5pi+r3DNPoPwCeeqQ57ebHlqUzk/FEYu0tfsQi1C4qh13A0jPjxS3jtQ7s77LGSbanSekJR63mIxIu0CbaaMXKRizoWtIc8+dYEXnn2SF545x5ObUAKhDQwsQFNTlZ5eWbKo5ywWNd6X9AdjmmZpSwi2Mjojaln3xs+I7b8nxIVOvCJE68TLmYubZV0nZjT1nJQiReFJFmlDC76k9RWpqKgT3D2E198/4qdvvM8v373Ojb0TeuvnsGKE6YA2OVxR0ev1EDEkHNIPd9nSuzzZv8cz60e8eG7BU2sNQ6bY/BBJTZ6QL6l1zF5a526zxodHJW8frPHKvU3q/tO0MmLeOoKVeFeg1hAXx2iaQXNCScOFjT7fvHqB73zjKi88s8VTWzBowLcTLDSUhaMqlLZtaduAofR746XC6hYlIZY6w5McePn7SlzpQo5LL9Q0T0TMEEtYDCgJ10WEZnVNkxJaFFAOOUlwax/e+uABv3z7Jm9cv8snRwvaogf9MXVSqv46VTHM3kdMFJrQVNNLd6imr/LC+SnfuVRzbe2Ay+Vd1mUP1x6S6hO8QkwRdQWtDpmyQV1c4CBu8vbRDv/XJ+f4cHaeWdqk9dvM05BAhTghhgVVBfX8mHY+Ic1PKNoZ58Yl33v+aV7++iV+79tbnO9D28DxwX163lgf9XAinRegcMYyYen+dMTFuS/Uuf9/EPfLhx87p8dQkqwsqRyisy5YAXjvWYTEpFXcYA368GAOb9yEn71xkx+/8ibX7xzSFH2K8TbS6xPFoUWBSoGLEW1qmB3h0oz1XuT84AHXLp/w/O4BX9+p2dY79NsbaDzASYsrAs47JAVUF0icQThi7GZsuk2KwZR6B8Z7DffnJ0ys5t5iyDT2cf0RrldxPJ/gfEWxMaLtbbA4PODmwQmzX9zivffvcOPWk3z/xat842s9Bru7SGOcNBMqjYx6FTFEsAgoIprdJgFSDmj8XQQjvyTnLr03ISAkUUxdFkIWkRQZlJ6maQko8+iYS0HqwfX78NevXudP/voN7hxFjucR119jsLmD9nrUoaFpGjbHY2w2x9czNn3kiTXj8rbj0jZcGj1gs/0p54obrMsDqnCPMu7hbE5MidC9nFcKb0gyUhCcDEBGHKZdDocvcTc+xQlXubfY5b17JR89CNyfthzUgYUoOhhjfkjdGtYmCjN8O8cWR1izzzNPbvG733ue33v5Mtc2QSOk6RF9Z5ROc+JElsTNBujSnfl15P07NKg60YsRWAbutft/QC2RQpM9YO0RygH7Lfzywzl/9v+8zs/evMFJ6pOKEWVvjCt7NCnRhprCC6PKE06O2O17nt4e8PzlAd+6WnD1fENfb1PM3+bwnT9h0N7Ch0NKFvRcwqnSpoI2CUkczgMsINV4EhaNFJSo6xzHDXT9m1Q7P0Q3fosjeZrr+443bt7nvbuHvH//gIPgOWgKGvo4P8KLx+oFbT2ntUg93ePc0PgH37zEP/nu13jp6pjzQyhDDc0CT5d5UreKLWfflVXM++8RcU/zo5JyjHjJuTl9lnAWwCKzusaqESc2YD84fvHhCf/zn/6Y19+7w2D7ErE3pImKk4LKF3iNaJxTuZpREXjp2hVeeOo83/namMvrMLSPSNPXOLz7N0zu/pyNcIei3YdYo6JACW6NpFtQjLPHK5G2OYRwTN81aJyhsaHX67NohEm7xkyvMnrih2xd/afY+Ovs1QPu1563bx3x07dv8uqHdzmJFcmvM2+Vuk4kLQjO0dRTbPaAYTrhpatb/OHvfYeXv75Or12w5loqAh7DqYBkAqccr8F3tshZDhZO480i+VhE8WWJk7PH5E+PQdy5qWoXFjxDVluF37NITgF1BYtkiDq8CN4CpQVm8wVN0SeO13nrBP7Hf/s6f/az91jEAVWxBr7iKNQMR2OGlKTJCb044eq5Pi89t8Uzl8d85+vnKEPNhg+MZZ9w/Cr7t/6KevJzBtxmGI/RuKA1aFKP5M8j1RX88OusbV2jpUIVHDPmRzc5vvMGUn/CyB0jaYaIkFyfo9BjYtsMzr3MhWv/BD/+FgeLdWoG7M3hnVsHvHHjLq9+9IAP79e0xS6xHHFcn+C8IywWpPmEKs4410/8xz94lv/6n32D3QJkckIRZqz1K5o2Ek0ZjDeYTqb0ik5MyzK+nqXhMs1h5Ph90gItPL6jpbfQ0dV9ZQK7H/3oj/44c+5ZW+7hz4Lh1CHisq71BSm0hKbFiaehJPTX+NXdyL9+5SZ//uoN7swcwa8Tk8eXPdbXR6TFFJ1PeGLk+eHzl/iD71/jH764y7euDCnrPTbcESP2sMm7zO//nPrwVXzzPmV6wKhMmECNp3FbFOvPMdr9HuPd76NbL+L7T2LFDlJs0RvtMByuE9qGenGEdxGlRSUgsgBbYKlGUqDQglE1QFtjVFbsrPe48sQuu1trOIzFbMHx4QFGiy8LREpiUtrkqIMxmc25ffuQK5cusL1ekdpEaBtGozEhRGazmtFojMWQV/OsvysZvLC0Z0xyFE6corKML8RVFPCrEteDfYprH85N5lNKzugY+E5e1ClhrqQdDpkHeH8P/tVfvMa/fuUD9mOf4c4limpIO5uCtbjJlPOu5cnLA77z7EV+65kLPLUDQ2fo9IiezanskHZxg8n9XzLfexXXfEyPKZ6GWW200mNmI6guU669SLX2LSiuEhfrJHW0qcFSybDsozsF5fyIk+kdSDUjaSDOKcQxEMds+gmTj5UiFBQXhb4+gZeaJEMGa2M2xhtcXF/j2ls3eeXdW7x73HLcLog6YLi+Qd1E5sd7fHT/mOODPXoe/sXvfItrO2toW9OaoyhKxCKxXnTh2hyZz6HKpVZ2XVReOkZKCG4V6v1NksHuRz/60R9/VueeEha6HEBH/2RGiJEmAr0RU4W378F//7//lL967WOO0hrDrcuoq1ASlUsMmLPFjJevneOf/8MX+J1vj3lqC6o4x9X7lOGQkZ8QZx9xcv8XTPb+Fm0/YuSPGLoapcWcI7ohjTvHYOsF1nZ+gFbPkGyHRVMRzYErMalIpnhVygJgSrPYo2IBcY5ZonAOxUhNDaGFtqbs9fFVRUpGvQj0/IBL28LTFzc4v71NGxKHB0dMjk8oix6+6JOyCUWIiRs3bjCZTDl37gI7WyWzSYPEyKjfYzGb4oou1ywu82oXNzhd+o4zRXGqOJFVfDof9MUG2ecSF06D1I9ifukS2iC0bZt3XzlgocJrNwP/6797gz/9+Uccs061fgl1fTQ0VNYw0gUXB5H/9OVn+L0Xn+TbTzu2PDA7oWgP2Sgbqv4Cmb5Hffga86NX0PYD+u4BfZ3iUgPJKKoejQ2oZZfR5ov01r9NTOcQ2cAXQ0yzUeLLIaCkpsUVUMiEycHHFEyRVIMK6gSvhkoghTmL+YS2beiP1yiHGwiOetGglGz0lc21gp2tHbwo9XzGdDqjbhJlf4SvhjRRiKZ8cP0mi6bh/MXLrA09KQQIC0qviFPSGc41tEtG5Gz+KSJNcE5QkdOskuhjEdefRQA8Opl8mgtJAOrRYkByws0H8NevXecvXnmXMNjFFxvEJPhQs1EmivaES+OS/+S3v8U/fn7EZgFSJ+bzfUrmjPstEvexkw85vPcL2tk7aPMRg+KISmsIdUZwqCPGREpGQvBFH6SibhIiARNBC6NuGkqtKFyfSAVWghSYKBEoCo+oYRYwmoziSC0xBg7vt0hZMLwIw7VngBHTWc0i9Cn9kOcvlmyNn+TKhW3+zU/e4NXre0SFcrRNU4xwVcXRbM6fv/I+vX6f//aff5sr6wOm+/u4UnGrVTwVtavEfvdacqpY6hKLK+zLVyLqiriQfTFd/f5TBDbpYDIRtAApiU64cR/+/Cdv8eM3P2ES+1h/gC88o0IZsmBLp1zaKvgHLzzJH748QhtwYU6sW3oqrA0qxM8Jex9yeP9nLI5excVPqOSQUlucQFJPKsh+owmFc5QYpQvgW7xrMVqaGHFO8QgiESFSla5bxxbnDIstSQPqIKVASi3iBbWWIiX6KJODV5nFwO5TxnDtWXBDkhhmLTJtuTIe0n9ugIWn8Jp47+4JxyeG1z518BTrlzie3+cvX73O9tYa/9lvX2WnP2LWTBgVHSdK6siYHkGys0xmXQb1FIT4WMQ9RUc9SnkvURPZBQriOA7w6od7/J9//Rrv7Qd2rn6TVgtiM8dZA4s9Llwc8F/9R/+I7zzjqA8aSqY4DfQLT+UjkvYIR+9zcvga85M36Pl7FHqETwuIiSgC6kgkoiWcesQS7eKI2cltxoM7CCVFbwyxwKShqBwxLpjPTxi5CciEtjmgaY4piViKRBKiEXV5cS3FvCk4IjU3aQ5hNhwyUEHcRcztEEPL0JW0k8hmb43f/+4u4/GI/+Pfv86rHx2gpYIfMmfAYPsKd/c/4l/92U8YDzz/4geX8TomSly5PUJCH8r9nkpNOcPdpxytj8W/7kf/8r/7Y5GMJWqalqqsWIqCoqyIKWWRaEZtjrbn+Nn7Df/Dn/yYD/YCaxeuMV0EvAWe2h0S9j/ixcsj/pt/9ts8e76kH6BIC0ovYA2eOYUckBbvcbL3c6aHr0D7IaUcUMqCQh1OCwxHEiF1uGHnCuo2ElTBlfhyTDlYJ1EwbwNREnUzJcUFg6rBpXssDt9gcvQaLt6lT00lEadL0WcZOGcGyUhtS6FQSGJydMDJ8YTRaJ3ReJvYGqV4mrqmKBwhwIVzFVub5/joww+Z1w1aDWnNI9UAX/W4f/8Os+kJV598iie2MgxgfnKMCKTQ5k0lENoar9n1sZRzv74syTo26+hkrFyjr0TcP/qjf/nHKx4VxbuCNgTaEDOoMGaFvghGMe7z6s3I//QXr/CLG8fY+ALaWyOFwFYP6r3rfPvKBv/FH3yfF54aUKUWnxZULmKppvI1hezTTt9luv9KFsXhOgN/SMEUL0sMkeR8seT8scpSNAmiHd5YS1Q9vupT9UtCPMG7hl4xp7A9mpP3Odl/nWbyNto+oKcJR0IkY78Qujiwp4Mi4MRwEiG1WEpgQul79HpD2sYoqz6oMV/MiAF2tnusr+9y6/ZdZo2xiBnb1UZjOOhzfHTI8cE+z1x7ioETnKWs9zvuLVxWNUuVaJYBcs4vYbS6UpKPR9wfZc41M1QdiBBiRNShLpv64iuSL9lr4X/7m/f4X/7qVQ51nf7WJVIyehpYY8KlEfzhP/4tvv/NNYoElYuUhSDUOJlT6AHU7zPd+zmzvZ8i8/cY6CF9V6NLhIdmSA4EIGV0symaBKegriWlmno+pakniAWcLKj8HGcHSHuHZvI+8/03aE/epcc9xr2YQe0YJiFjV1mChwoQj3ceFcPiHLEWUqSdz5AYqKo+Uqyh1ZhZs6CoClKKeN/niYsV6sZ8dONj6mCYljRtwhcFi3nDvXsPWBuu8cyT6/SLslOlOZwrKeGdYimhIiTLWKxT4nYKUx7HVgavS0erI3DTtqgqvqgybCZGkoD14cc/3eNvXv+IuR8x3L6QxWYzZaeXWKfhD374Ei8/v4lroZ4eUvQVOl+z5w8J0/eZ7f8t9dHr+PYmlR7SlxZvibZDLJgmlphjiYqaRwxSjDhnqIukcETTtiyaGamZUk8+ouitUzcNTTMh1gewuIePexTuBJciURJRHubcjNPLYDBRxWJDYo7TyMCVTOvA9F5DjJGNp9YQhqR2Qa9XoK5gf7JPf22L331pm0/uPcm/f/M2Empcv8d8UeP6m4RG+dO/fp3vPnOZ5y4IFQUlkb7PNkrAcN7nuPJSA6+qMR4/gAHLfK6B944QU0bpO09MsKhb2jbSCNw+hH/zs7f44P6UjXNPknoD6tmEATPGEvjuMxf5/nPnGSoUCXrDima+TzBj6I9I87dZHPwt84PX0OYmw2JGScyCpwuQmCQSAZOEmiBSIMl3pRwhc5RFSgcqM6IJEhJM7jDZSxklIgHvAoWr8TLHpzmhaTGnJEmItHnCljdzSoqI0VqLaMR8RGSBL04o44JFPWG+b2i1yfgJYVhuMJ/uob0tNkdDQoyM1fGHv3eN6XzOv3vrHr63i+uXTGeJ4MZ8cO9j/u1PXqf/j17k2nkhNBW4Fl9k6ENRlDRt7Hzfs0C7Tsg8Jn2VDmy9BEQ759DOrwSh6vUJAn/5yh1evb7PQgaIH9DMppRxwYWRcGWr4Pe//zwX1iEtEqVE+t6oNDCqAtLcZfLgb6mPXoPmJqUeU2gNtFnPOAfSheU0F24lyXBY01zW4SvBNNGmQLSA95FesaDiAb65ySDdYqx3GJcP6Bf7lMUxRTGnKIyy8qgGRLs4rZyJEAFiRtu2WTV5j2G0YYqTCX1/Qpluc/DxT9i/8RNKPWJQtMTFhJ4XehLxTcvVdfj97z7DU5sem95nWCpFWdFQosMd/uoXb/HG9Xu0DswLdTR8UYIoMSZWoP6z0QbLocHHEcmZuLBC8+XdsqzfEXq9Au+FOw8a/vLnb3KYemh/k9BGyhQYa8MTY+V3v/MMX39SqQRKCVi7IEyPGZeGiyfMHrzHfP9X0Fyn0hOc1CQiSYTohFYM8y6jxqmAHkiZS0B8JBUtqQhEn2hVadXTWvZXJS3w6YS+m1LpMY4jYjqkDocs4pSGlkjEiVCI4MSjFCgljhJvDpeUSko0etR6CD1Cmxeo9EbJMVVzneknPyU8eJvCL+g5o53N0FAzdIk4i7zwVI/ff/l5tgcQ5kf0eyVa9tD+Gg/miR+/+g4f3YHaoAmQxBGi0YaUU4OcrcggE7bDeD/OULNskWZRn7AUCG2TOdnDYQ2vfnCXt28dEasNtBpiydjsO9a0Zqts+Z3vnKcPhNkJ/UIoPQgRl+YsHrzN4uBNtP6EnhxT6gKVlkQEr5gXAglUEHWd9VpkkZxzeJg32tSSBMQ5nPPdsaAukRmgRbXFuUBZQq9fUPY8plCHtjM3FZGc3cp1hAomqChV1SOZkBKIekQUlS5O1EzY6teU7SccfPy3cHyDXml4hRQTqW2QZsJY4Xe+vcuLT+1i0wdYM0EFAh56m/zszeu89t49JgFafHZzBMTrqkQ5V0DCw9GsxxvqnUPEUA8hNSiBXpkXrhW4MYE/++UtpoxJfgS+xLnE7Og2V88P+c//6Q8ZKbiwYFgELM6Z17NcW9M34uwdZPEOfT3BW42TgGoCB0EiUQ284EqXJ5IML0rhcmYk1zFlyxZTHIKzbG0mEkGNxkHrHK06kikEoVPPoIIrC6I6zJeIK1BxOFFUcwlnINFKQiuHeEAihc/EtyCUriA2JwyLGcw+YP7gTbApIsZ00WDqqTyEk2N2SviD7z3PcxfHxOM7DEuhKHvEcp262OQvfvYWtw+hN3Ys2pbGGgIN0SICODsVwqbSVS8+ZoRqybmJDDJvmpY2ClQjHszgZ+8e8KsbD9DeeUICYkBTzbm1kueeOs/FzQIfwVneGCuHW4HmhFDfxtkDHHOEFsRyfZCkvGu7G6nrJguQrpRBTPBaroqiUowPb2R5+D19EWJBIHaQiOxtKRYNS7lgPCMTu/siZXEoisgyaWKkVKNMsWaPZnqH3mwf6+0ivkLUYTFROkEVLm95XvjaOe5ObnE3zHHFGHpj6nrKzXsnvH39kGtbG2xXPdrphBgD2tWoCnmOj5rqVyYuZMK20VAtaC2RTOiVcGcPXnnrXfbnc6q1EiFlM14DV85v8MKzT7GzDrJIKIpKkQP7PjvmFmbM5wdU0mQ0mabOQFpmQhQk+9ZGzNhnjBQibUyIKUIB1gUgPjXdh1KVqyo8+YwkE0BjzIVeXeDCQhegcQ5XelJXyZ/dpE7PiYHL57UYQQpCOyfNjunVE7Qf8L5HEsM5XW2InU146fmrvH9/wv3rM1wxwBUFsehxd+8ur771Pt+98l12LymqRU7Y22kJWb7nU4v5cV0ib5KT9SElemUfFAIFc+CdW/d488YtqrV1fOlRg560bBbGs5d2uLLr8AaeXFPjuvymd4oTJc3mtM0sR6jUSF3EaVXmqrLiVO8KnCopBJpFTT1vIAliHizhiUhXXLlKT56B2K6GfXYRpCP+KligBSEKTZtx1RWGVEYujEkrgzK/J0yMRIu6hDowy8mJwgvehEgC5xBV2mZBUfX42hMVTz+xyZu3bnLSzjDfpz8YMdsveO/ju3x0Z5/nLu3gXI/SRULovBaWyYIlUR9/+GS5is05RzIh4LCy5N4CfvnhTT68f8Dgwi6I0VOjaKZc2OrxzSvn2B5AnEOluVVBzlN2ERVNBGtJ1rAqxBY5lTvaLRy52NiiYikXyofGiE3qapRaFCMszVfOqiBZEfhzQX5dpSEWsZQQIQc0kqNpE04EjUqJICSSpa4IWzrJkbnZe8uljl1qVXWZBLWOKIpToa0XiDq2BwXPPLHJxY37TO5OiEkp+338cJ3bR8e8d+sBJy/tsOEqLM66Vg/WlbGebtnfrIRTsoAvnKeNiWACBdy+Bx/c3mcuBZUvczWBBco45+ruLs9e6jMQaNo5WmXgdUiJZEq0hLVNtjZ9RTTFd7Hilbix5d9Z3KoTiNmoKFyBFCAp1/+oAEX5iNv/lOJ9BGFX3ybNFlZW7FgUCl8gziGOlb6VLguDZSoaCbNcSREQEg7RMkeHY840ucIRLeSqfAVSS0XBtYubPHd5l1v3rjMXaNqI9sacTKa8deMedw6fYzQGaRPOdcTttsyp1QyPq339MuwlCDEkEhWmcP3OMbf2JvTXd3Me14xSE1t9x9cv73JuDMwDlTecWrZqyRZeTFlv9n2PsrdFXPSIGGoRKKCLCkFENNf5Otd1rlGH6xdQeFJokZSNMCmKXCa6DNN9yvf7bC3rqcjuQtZ5kSSQAJcc3hScz1+6mBc0Sd4I6rDksv5QJSajRYnap6rW8dUo1xVHo0xGIxYAACAASURBVKgUS44YI0VRkpIR65aL6wUvPnWB1965zf2g3J03+P6YeX3CO7ce8MHtOZcHfQopWBZ5Lhv8LOewxLc9Dvd6EKyzIVQc6grmEW7c2ef23gS/uUNMUBCoCtgd9LlyboMBcDI9Ym3Yx6kBSpsS0hUD0lncrtylWayRuJfFTVfPetpXIyJixLDAouGkpKj6uTQ+KMQMJltatCsT41HEtE/9feazSudq0RAtgXlMMq4pppgRGrDCDi9bF+VYr6MNRmMZz1wOd5HeOqoVYoaa4cTRtC2FL4gp0NYzRuvrXNkZcH5UcnxstE3DYHMd6Y24/eAeN++fsHiqz2avwsKcszZ/rgQ9Tdo/zvDaIfEsJJw61MHxFH75xnuUg3Ws6COuoCSwOHnAt7/3LZ7Y9tSzxNbakJQCMVou+ArZ5iQmCtcDG7K+/Rx3Jx8S7CYSDS+G1+yvLmuMnBjRGtSD2YK6rUkNWBAIsiod/XwD45SjHz0UI/vzpk32j4OAFDhfoV5JqaEoPYoQUsRJxBUFbUhMp4Hx6AkOD3vo8CKjratAn5CUXtWDlKsfSueJ0SjLinreEhZwYR2unlvjnQf7nNve5c50TpKKor/Jz15/h//yh+eYNznI75x0bqnhkN+46sBng0OxlGOtweD2vcTe8ZyQPBoFr1Cosb02ZHd9wKAATS2hXXQYJyEGiCkhKjlWbCWmY4r+Zda2n+f4/gcUZZMNmhhIsUEl4r10SRBHSoE2BJoMn8ICSARN0tnhjzcMyehIzYmFRLdfJOGC4L2n1yvRJdBQcmiziRlyWvbXOZx6/OAyg61raLVL0j4xKhIjRoP6ElIkJlD1qDokJcal8uyVc/zfb9/nJDbZ03IVQUruHy34+B6MdsDhOuzF8o5/86F5Vy9NQEcU+OjWHe4fzTCtkJTNfZoFO+tDzm2OGJSAhVVy2XfGjoiQY/8OpMAYQO8Sazvfor/+AlZcobFRrjL3Bi7kMKQpIj1yTLnI7Y6ywUoUVrpW4uO9SJKbmyTL7vCqUY3ikkOjw6eCInlcAteJ2iwsSpKNWNgWw53nWd/9OhRbtFblCgEz1BJeDa+npHHeYylQClx9YpP1vuJSTSFC4QrMVdw/mvH+x3tZOOFh2btq1UtjmXd+vJGDr9kf6eCXcOv+HrPWKMZDnBT5srFld2PE9ppQdNalQBfjdTnpHGNGN5DjsxnDtw7VFbYu/DaH9x2zxbuUKgzKHBiwFPOmSiBa4dWjLlCUkdgmLOR2RD5abrrya8dn93xCc88MoevNkbqYssdLhROPdO0Dc14bTDzqhsQ4ZNFuMNp9kbVzL6KjJ2ltTGsecKAJrw4LAa8O1bzJy6oitDk4sTEWttYrbi5aeq6fw6Rln9n0gJv392l1mzJmgF8OPn5OGO6rElfFZaPCspHYRLh3eIKVfbQaoMHhLDIolPNbY8aDvL+SZoM9JrA24bzHAZYyklIkB8bbJIht40cvUTXCovW0zfvUySg1AAuCJVJaBvZz0kBdRDVCmUOBy96Lv56Ynz0mx6OXVXepe1mXOvA4HLGNBOuiVL4kph5NHCFykXL8NdYuvowMnybZJsH6oFXOBXfWdFgscFWvSx82lEWFL5QUE73Ssb05oLh3QEmijRFXlOAr7h2dMIvQFzjbUS+P3zhZn/dJNCMCxwvYn0yRsk8UjxMFa6k8bI569HzOhGTxqxAcQg7niQlZcXW3JI5oSrIRKUK59i3WxXGyp9SzBvWJUoW2PaHwnqWBmLLJmqNeCtq5V7+esMsF+ey/nEoOPiXp0BeJaCEHTizhSk9dt1mIFRVNGDALawyH19i+8ANk/RvUbJNiD9wAkbKLXEXaEHHO453DkTIGTVxXlhlR59jdXkPtDp6ItTkLZs7z4HjK8Rw2h0tNe6p3T3n4EZG4L0Nco9NpqgSB/ZPI/nRGKtZpQ6RUj0aonDDul1kkpyZHaLpCY68Fbd3gvc96Mrbd/bjsL+qARXJUvqAaOyQJjSpp8SZtbBGdgc+Ni2J0uboh2WkwX3JXukdP8Ism3X0nkvtjiWQAAAkjIzJEIyRH4R0hCY3kDFQo1yiGT9NbfwnZfJHWXWDRVHgp8K5HNO2yaWXuAdI1KXMquSPdMptlEfWwu7OJk0gpublCIgPpDk4mTBaQhsv7TQ/fO7Ii91clr9cOHK2+IAoc1ZFJm7LOjAHnKgoHw0oZ9z2l66JLKXOTxYRYBp95JyRVUsxBDUFILkd0nJY0rSBcpL9VUDnl4G5D3UzpFYkmHOCk6arT6QgqBDMknfbaWE1zxaBfPOVVlNYiLFvqdroV6Lq+GYsUsLJPG5VpM6IaXWH7/G/RH71IY9tEctBCfZnXJgTEKWVZQhuoF4tsUFYlvaKgjUbTBpworoDNtQGFJAqXWwE2BiEK00VLnW+ta6+wJOVpCcnj8S14iTVOyLvWSvYbY38eoUoMCyXVM6peYn3oObftqBvwCBZyLZpTRSShPhHiPBPVGbKEYFuXV00BT0VKnjoIvnqRtQsVk8OKk/2fdYj8A4QW7wzr0BZRlyUgsWvY1XVVJacFVx3a5FNGyEqM5/cYW7yvEMkRJBPLwRNJtCkHSRZtQSu7jDaeY7DxPVzvmzTyBOY2sSRUhcMsEWPASxbzYdGiIviily8bc/MXJ0LfZ9E8C7AxgPPb67x2e4Ird6EBV4yYzadMZjH39IiGSkLJsKOc+uym8Rgurxdih2fPoa/WlIBDTHB0Jb8p4iXhZdlIVzBxOWjZdYjLYa4u1LVa0i6ov/wkimiR47IiOJfop2OcRub7P8d7wemMlGbZF9aHZ7XsOginHPnIsTqmezcoXIkl6QqeIcRAmwKiJUU1ZhFGBNtAq2uMN77LcPO7RL1EHdfAKiBk40mWerFzz7pNtlQasopnn242NSiErlQzi2ST7C6GJLQh5b8xPmMpn92jX5F9/amyzmHIGHIDrpWs71yDnMaja4fLqifG2esvf3P2PpbGQbKQxXTnv6lU4Daohl+j9IHYTEjhOk28kxdB5khqM45X3ZnA3Kco+IWfl/ekKEWXpo1Ai5NFbjWMp22HzJttquHXWdv9Dv3Nb4Gep2n6RPP4wmf3KU/84bOv4t2Puvbp/5zSlWV2zVC7n0VLNE0Ly37O9oht+5hy2Z/pQZrVecit/WRZE6pC7MDS2nGOdKHA5fVOG3p8mgTLiedcx7I/ZBIjmEIa4uQ8ropsnjdO9grmJy2l5O4wKZ5klL5kUNkXWcddH9HTxbCzuRQhxYyJwkIG1nnBFwNCu85svkZv/Bwb516m3H4BbIfZoiKR2/+lmFCX57ea2dlcsuRFyKtiq2lnjyEfkxmjuzFOu/CllGhj282hK5U1PXvzjz382U2XEzXLhsXSvTniWdGw9Fcsrbg6mWUdtIxTrxb8NMqiqhm1qkpKgpkjmQNxCCU6HFA2iboNNLVgMVLQ4KTuUoHL5qFnb5iHmOUhAj9ipJQ7yormGqg2DIicoxw8w7lLvwuDZ4Hz1GkAfkCvGoEZdV2z5KrPslGXzpDlAp0h8Jl2FEuRnaXHMlOTvYH0EIrkEWz6uZ7CFw9/WuGdfUqxXMKxRFSaW8adMz1z59WcgxXLJRBmZDBXN5WsG5eTyu8ZwnTajgdcJjAFUQpigGr8Iqhx/CCxmDaoN0SmxDgDl9s2nOqkz4rf1To8tKT5L/FGUwdEHOpGtEGZtWOq4TW2d34A/WeIdo4QRuAHCJ4mNChQlp7QqaplEfrq9Ebnz6aHCbu87lIxpdz8W5Z/dO2JRQXRs5XRcrpDZbl1Ts/z1YhLt8Oyq4vDcOTsYkxGctL1cOiWyZZNpck3hpy22hW67nJZDC8X2+ha8FoipdgtEGDatR4YYraN+oJiaAyDUati9fvU6ROkA62xBLBJ6hh3yb3Laz56AfJTRmZYocQ0IMYxUTapxlcZbPwWfu0FQtyh1RFolXVxbHN+Vh3OVxA/RdjluwqnuOJTwi65ealb03IKK+nW5bG94At35pyflQxnzvjViLviBctpJ4/hsezDdjtrmTF6yAJe7kLOwkAeXekrZN/OyEVPkNsCJLrJiuKKDeaNUcgTDDaEqhCO7uU2SL3CIUwR6tWZV/6gnfq+jzJncvG40YQaV27QNmtMFhsUg6+xs/sy5fhFmriLlrsofZrUklIu5h4MBlg0FnWD12VxFqv3ZRcgOyuSz+jKVR9I6SRX15bXlg27JeE0xwdO5d5nJnAqjr7i8MkMRDNkJDpGvZJh6UkqRMD5griA49mCkxmUm8LiqGFrbcRiPs/pvYfGpxaApWgBRHBarJ7+kZNcOeQXTEH7RNumCQlXzFnbTUyPC473X2Wtl6vjVaxLG2aR6dStFnSl8ezM1uoeIhGSow0VddqiWPsGa7vfxfrXmLNLMXiCpqkw0w7TnLdPaAwTh/PujGF4Rv1YOrPBIYSQgxoizOsmhzV9AT4/gONkuqANES0dGiPz6TFlX1gb9kkhG1x6NsDC6uPjEXdppCxdnFFZMig9xzHgCiHGXPaxaCPTOuTUlCxriTK/nNUXD5sQZ62dnCMS0y74kB9ekcj9mUQ9KXmMcUa50CJVxA3mlM0Ei++h5GZhqgls2ZJfs94n44vNlne1vB/BqOj1dzherBO5Qn/wPNp/Fh1+DWSTWVMg5CoDR5cMsDOu4OqMZ/nr1HgSls+JyARPRhcXd4g66pQBEE0SxJf5WQZmlE7oec1FAN1mMdHH8mkfTdxOrokACdaHFWu9ik8OarTMiXVRx6yOHE1qgnm8Lwgpdjt3JXw+ZcScoetSB3fW1imqMOSOMiud6kipBIao7maQwLBhYFPC/h2S7SE5y450eveskZaWz3lZ3Ufm2mQD2vkuqk+zvfXb9Ldfoi0vEnQb0z6txdwRD1bwn2wVplPru7NiV4RdieLuWQ0WKcuSmHJjFucKRD3BjGDw4LBm1hi6dK3UKFUYVp5hj24usRPfS4jP8jL2WMRemm/Z2ksw7sPmeEi7mKOSEQmu8NQR9o5ntEYOlnccIgakjsBnXJ/TBe6OWy33cpw1QvIjaizGLivkSTIEt40vL1P2LtOGkhiUGDNB6RCKtiIwSFf7A7Ky9jMYocRsm7XxNxhufhMtnyTGdZq2IqYsiU676HWtdCWSm6fkIvDP6j176CWqqHOnxiXQhpA78BjsnUyZhdSVk0sGA8SWUa9kUNF1sMkGY36ox+llHvdBFmfM4IQk6Bews7lGivkZP9LdeIvjwdGUeUsuXEK7Uovlfv4iF0Wgq4Gx1eNcUofRzd8pLrsKXW9iSwr0ENnAuy0sVaSoWFq+lvCc7ilftiSsnl5zdW3PcLRLf+MSyIjmJJFaTyk9JAq+KypDLVdFSMQk5Cr8rjvOlxkpJULM/n8yaNuOuMDe8YRFzF1vO6MBCS1bayN6HtQSZt3jdzi1svMKPp6M1qUfRcr44NLD+Z0tChVSDCC5GqE15c7eEcez5YVPAVza+bWf9UGXiysrXZu5IJ4SONvSqBR4LSicy0DxzheGDn5DkSsAxSPiun4dKfuP6lbXWsZXzjibJCKz+hhsDhLwalTOobEDBp56oyQxUrfx8gIJunwE3HJuD611Xr+UYsepCRFdcayoY17D/cNjAjkgJGTiqiWevHieQiE/licL+SQP2zGPdgN+/fCc4bpCoXRwfmebfq9iFmNublnXqCXu7R1wdBJo13zXnZBuJX9tq2gwz+rpXxJZVSF0yERH0RlaSt7fEbG8WLlGzSNdpV9KkdgGYttgvmDJrbbSTWdcMwOk5XD6AWlvm63NbdxwDZUFTdBcr+uqXBKCdQZU1x7IHMROKuiSkKcE/fSqn32SV4wJ7wtElHv3Jzw4OCJJkbHOyQhNw9g7rl65TOHIGa+ML344EvcbmMweXG5RYPlRMYXBxnpJr0zMrMbSgDrmWqD9WcPhPFFHcvmyKKedwPMC6xliZ0u1y5+umPnUCMm/y8/sizFburo0rshhuRQShLSC8OZn3RixCYSmRWJ+2qbrniEgy1qMTufm9WoZlHMO935FXIw4d7FCB0rpzuGLdYLk+Pnyp1l3dw+ShG5TLiewrIC31VzEwGuWPOaymkokXFHQGNzen3Fw0mA6zMiP2CBxxrCKXNotKZaqrQtPilmXZCBHlpaS6CsOTdEhwVFGI8xOqDxcuuh58ZsXmU/vZ13oRzSux7GVvH9nQnCAc8zrNvel8D0iZeZAi3hr8dYipDMIxmWJ5NLpVzCfRV73pyuEKAEpBHG57qgoCpwoknKVuRdBYyLMG+Ii4CK4CBITxNwd3aJBpHtPuFAzYsYo3aM9foX7H/8lYfouuEmu2ktxpVtz5xyPpgIxJbkW8wvULcj9NLIUMlVMM4zGUsQlhzWgIeFdnscCOGjh7Y+POak9vjcmpIhqw8DPePHaLhtV7iWgJhnEFg2JAU1h1ajIHhO/rGK5ytx7T6Gg1jAo4dxmj3ElNIs5hqLlgJaC927c45MHucIkkrFXbYw5H2lZWCtLaOiyUXRXtnlWFy+LjLta3LOi7v9t781jLLuqe//PPuMda+ruqh7cg3swnvDQsQ2JiY3zHIxADE/wUzAG8qQoCUoU46CMTqIEIpQQUAIEIUVEIhgjAgnBz5ZN8rMx2GYwscEj7am77Z67uqur6lbd6Zyz917vj33Oube6PbTdnbaNvKxyV917xr32XnsN37XWUOih/L/TxikVrlz3yUPIzgWUZ4a6v8XL90pX/4l+h5qXEXkdOov7mJ/bA7pN4Evp9Ff5KlSl2aNy/ULKhaqGkqOHvUe+HyDaafxaZw50GMCBFuw8uID2KmQGwiik313AJgusXt5grAaeNrnFUciNgQ/62TeA42QueVERm+OEsZZGBBtXr2T5SI2k18r3P4UiZOcze9m5u0UiYDxFxpCGh0IIcNm0eQNjBv1wT4iGTILCUTGsRA0bWkWvQBcbHZhNECJSQduQ1ORFXjwBMa6tau6qtLlGD6BshLJVkAqI0ws8ETe5crXW/WMwaJTvfPIqiOmlsGNPi10HjqDCmH6a4Ac+WdqnXo3YuH4NjRC3SqVoCJfvucptZ8N+hBdLXhE+TMWSWYNJU6oKNk4tZ+3yEZTuIqaPTjVKxbT7lqd27Wd6HoiraBEXrCz3UA8hKP2oLovPDGnSL5FkyJecM1rywXXeHQb7LMXqda5IsYowapBmIYYRRidOZ2z5OryoRqpdfJclq1VypW8gppEgl0x57UaRMu8JPFKd4QWKIArAD1BBxOEWPL7rIAsJSBDT6yek/R4Blg1rpjh9zXJc1QiNV4yRKhLSCwkhL3lxeMoTxBeMB6IUnrWEBtaMweZVy2jEhixZxBoBVcGLR9m+7whP7Z9BogDj+3nj40LNcDZwYay7IpYvpU3hMbxdysBCMRYpE9koVp8drHIHgQnIbITxxqiObGZ88hxqo+sRv4kWSmRlUU3GMVcDumTiINPd9egregIjAYKflznynUcKj0zB3sNtdh6YxcR1UnH9mJJOm4pn2bJ2FWuWg6QZvuhyjJayUg29+Isnr8gcV0EAvk/oeahUMx7DWetXsnqihk0WUQKp8ZBohH1zfX72zDSzKVg/IjUGwSDo3Lcq5U8BAD8pJGoJI7GCDK1o95MX+xHlPJ4CVjw6fSGsrWB8xWai+hoyWyezESqIUH7RPtUrfwbr2AwmpxLIzTgnHTyUBChxPmRB0cssiQ04vABP7Z3hUDvBRFW6aUYY+EjaZUWzwpbTJmkq8G0GQwGRom720hF7icwtu5Ao55SIggB0SiOAszeMccbaCWKVYIymbxSJqtGRGtt2HeHxXS0yFWJziI1rKaUpukVT2Isv2cfiSBVJq4UDYEjpKZhYKmbl3wyYjEcqHkF1FNWYAn+UJA3QNgQvzLWC3GyTEGVDxzAhf5+s9FhJXl7QXdvLzUjlmhujyFRED58n97Z5dOd+2laReR6p1XjKEpFw7sbVnLVuIs9L0jljVYm4PdasfYkeqsJ1WLQ29z0FJqMCrJ2ADZMjNEODyXpoERIJMOEIe2YSHntmhgRQUcXBvkQjZIhkzkTI9zux+aCfCOUMLRmIGhKXavBfAVPJ9+PCuREEfg6kN+ALebak83TlwYiBJ81H2Txzp9h/c/9yUYmnVCFzz1ymMzKASpW+B9v3t9i+b46ECI1r7SNZl5pKef3pq9i8AlSi8azLVnC+imKPHaITiPl5YRAixjHW4Zss9WrMwnwbz8KvXHIGZ5++Cp8+me7T1xYJmywkIQ8/eZDtexJ8D/ra5Ha/IYwUQeDlYTAf3484ntlXVrFTRUDbiaMCYyRWXKixYDTKAeC1s2+Ntq7oV/6v0QaTGWyWEgeGzvxe2vseQRZ2UY0SKkEGRhMGYSn5lCg86+MKrYS4QmBuZaIUqdEYBSrwsGh839WT1JI4HSSAh3d0uX/bHrQ/SlAZpZ9keKI5sv9p3vj6Tbzx3ClMDyKbEAUBmTYoP3DC32qUFAqo0wVeqJvYczK3mPFBnsJhrcXzFHHoEXuwagx+8bzNeGbBtWaxmnYvQ6JRDsxl3P3f2zjYBVWpY7wACTwyq2l32yjPJ65W6HWTl/RwS6gQtUNi1xV6VUNacrGaB6u88FB7ukdvfj9H9j7K3MFt0D2AoocvhrSfFHpyLqCLUvWu+5lVCiuKwI9cuqqnSHWKNimWDINGe6CVz84ZeODJvcx0wQRNkhQwlqwzz+Y1E5y3aRUrqlDBECm3oDw/pAj7qyFpkE+3lzx2nnMZOsPZH7qIUqD7hpqCC7ZM8rrTRvGzOZTpElciwsoIbR2xbdcsD27voAPo2pDFvkYL+GFAqjP6fUMQxSeoK6uB+3F43+WofdYWmnRetkQV7wV+1qeuEiJzhN6Rp2hNPwmdwwSiCZXntGKM80KpNN9fLUa5qs8i7gcVoLwc7u3Am1hfEY+OM2/hgaf28uD2/bR1hBc2MRnUgwDpzHDB5pVcuHmKkQC8tOeq4FmQXBnL5VSuLzt6qQ4MAK9IvLZa43te3mTQIQl02oPEMNmAK994Ng21SLpwEF8yOv2ERGIWTJX//P7DPL4fugSkVOhrCOOqS6Xo9wjC8AQYm5OVPEtPilhF+XehLUuRWE2hgA0pXRrqUYVaHJD2F2kvHAGT5p65wn41oDLIQ32SV74BhfJ8slSjU1OGGiUvpNSzPhkxD22f5v7HdzO9kKFVTKItSa+LyjqcNh5z4eZVrF8OgbYok6Fw+73ke7saaIIDp9AJrAqvEEZGG8fmHNHg+z5x4BPajKYHV2yd5JfOXkNFz9GZ3UeadNFeSNdr8NAzs/znj7ZzsA1xvYH16q7vTlyhUo1JdXJCUrlwUpRMzRlbruJh7ZiBCSTFBBAPJKbb8+j0PFQ4SmN0Curj4IX5Xl8oSwbxBlpxsWyCwOXmWa0dtsCCsR7Gq5H5DZ6Zg/u2HWTPTIZXXYb4IUanSNbB9o5w+YWbuWDTJGMR+KZPGHh4fuCyIFVhdrkVW2juzvFWvPhLYq4z3APfx1NFSonBWovv5a1ZTI/JGN76i+eyZfUI/dY0SllsELKgA6Q+xQNPHeK/fzbHTBfiSoyWgFRrgijIUzhO3ENVMjUHzQ9kVrHvilvZhffRiIurWoVRVfq2iqpOsXzN2Yyu2gJBgywzLgBQRquKwc39vOJyfazN8DxLHPq5cRfghzWsD10LP3xwL9uebrGYVrFBg1RrsrRDFGYsayguu+h1rJ9QeKng2YwgryZgcj1nMHMHPikDJZTpJXmoCo+SH4T5vuYGiMJUNRm+7iHtNmeurnPZ1rOYHKuQJG36WrOYCToeYz6NufehnXz/vr3MLILyYzJtSLMkhwScAHNzh0XhgnQdRYq9dyC6CpdkwdjifbSFTFWIRtewbO15NNacB/XT0KZK3yhUEJSoEKsCLBEiIUiIb318AWsTfN91NxGt81pacHgWfvJwlx/+ZDd7D0M7rdBqZ7Q7bZJknpGm4hcvPpNNqyNqCiTpEPp5eqrJDSopfWOAU94KVrs59xJX7rC0zLQG5RGGEWEYEvg+YRBQCX1GQmF5Fa54w1q2nrUGP2sRqowgDOlmQuI32DOnufdne3lwxxxdwKuP0DeWfuZCZaUNShFtyXWhYbP02XirXPNjl4biIk4e1tVzLLYVcUF/8FHGQ1mVQ7NcLFiLR9yYIGpOgt9AmwijKqggziu65hOlHOah3NgcZ4wH2li6qaGjPeZTeHRXyi13P8i+BYWJJyCsY62lFhhG/ITNKyq8+39tYTyCwLgSPWEUueYgCqIwJPSDfFyKe770nNwlzLUmwVMWIwY8r4RoGZ25MrgqAFFUfYWfdlg9Cv/7yq1s3bSC3vTT+FkHsZZFDZ1wlCeOWG798XbufXKRRQVSqaHCmCTJ0JlxXUC8gCTNSLVGfM85Lq05am07JUY8j0wUVlXIrI9OM7AZXl5Q2YrFKp/UKjLjYbO8lIP2UHrgm7XaYDMNjTpEoXP0ez5KfERDJayCEbIkcRmJvgAGYzOM1YRhRGagnVpMPEJWU/zoyTb/fs9PeXJesxiP0SIkEYPoNrKwnwvXjnD15VvZVMX1V1IQRjGZdbn9YRi4IjGiUCoCQhyezJlvATmEyCuY/yKZq4ZU76WSfSD/BY8sTYk9oe7Bpin4pXPXs24sQC8cJFIZKvDpETJnKjx2sMsd9z/JvdtazCSgalW8qIpFkWmN8iCOApQSrMnwA+Uwf2V+kSqB64XMNcbkcJvc5ZdrxtYI1oADyDlcNLawc/NpIpbQZvTmDqEP7IL+HJUgw+oOJutTq4S05uYAaNRrRGGANZljsgeeH2Dz4EPYHGfBwnd+cpj/uu8x9nYVprmCVgZeFNHvztOb28fGyTpXveFczjutirRSQsnze0uLupjCBduWZtIvdVu8tDUcHN9hCktIEFbodlNG44grL1lLt5fwnz9+kv3ze0jCcaLaCHFYwElVwgAAIABJREFUZTHLeGDHIbrdDpk+l1+5cALxPQKrSJMuoRYqcYAfQpL2yFLwfNfMwWGMnJx2FdEtodUENiXA4OPjSYzYuKwl5dkhMECuayE5SFQMnmQ0vYy5hYPMPP0Q9X5I87Qmcb2OzkKsjWiM1J3/vNd1ol+5cvue8jDi0UvARhELfbh32yzf/vHj7Jw1pNVJ+kREsUInbWz7MKeNRbz5ojO55PUTTFSge3gRL268JAadCAXHUzDSzTQfTwXYZB6dataP1XjHZZtJtOHWHzzKgqqgvDpWRUg8gg48th9eQH70JHPza/jVi9ayqlkhtBV6i0ewSUo1Cgh8F7AwUkR4XJBfkUeAlGNwoHKIDUGOQ/LBeviiCMTti7aUNk7vdQANh1yUtEvdD1lcmOZAso3MX8HEhmWE/ihp2sUPYpcJgFf2uk0zQ2YMxgvxYp9Di3DvtsPc+ZMneHImI60so29D2r0ejUpIe24fqxrCO375Qq5841qaPqTtNmPNmKJW9Kmk4165WmtCndGIA/ppgvR9TmvGXHnRZpI05T/v20G37yOVCXRYoafqJHhsn9PM3b8LFVXZumU56yeBaByTtNC9jDjwieMQk+bZ/Kpw/jnXn6eWpnVY8ciMYFwgFl+5ngeSh/pMwdTScgxc9Zx+l1pjlMBquoszzM0coLFinqAxhlIBvX5CFFdcT0OtWeylZAQQ1VAxPLMf7n1kP/c8tJ3dC4akNkkW1OmmGSKa1qF9TFU1/+vCjbz1DWs5fQxMp09ISq1aJ+m79zuVdFzMVQhxGNLvdqmEivF6RKuzAKbO61bV4E2v58hCjx89tp/ZxQ6NidWkVuF7MVE4yoxuc9M9j/HMgUkuOXs9Z55WYWVz3AHdsi42MVAwMvczukidc5qL55ce30xbfGuxeX6rK0DiSmEO8oXyoK94KBw0NYw9EiOk1lKtNajXm4R+jPJCjFFU4hp4Pt1+SldbqIwQVODwIux+Bv7/u7fx2O45ZhIfRibJiOilKTbtYduHWRb0eMvFZ/PON53BulGw3Yx6KFTCKp1Oh8Cv/I8y8tnoOFeuU4BM1iNLM8KgQiX06NuEkBobJuD/vPMSxpqP8Z37nmBx8SDVkSkIqyz0BZsFtKjQ377AXHc3h+dXct76ETYs9xipNLCpBnEV0V1JLJeHZFWBnnSFOT3Jmxp6Fj9yypZ4kAmAK6TiID3gY3JEho8hhDiknYTYaIypNWcyuvoMVGUCJMZkygUDrCHBR9Wq9H3YMwP//ehefvLYAZ45DG07impWkTAk6SyQduepqz5j1R5vf+O5vPmCjZw5CapnUFmPKIpd5oEFPxgoeKeKjpO5Qpr0qNUq9HuGfj8hCENipUh7HUITsH4k5kNvP4vRWpVbvns/Cy2B6gSpjaiPjBFHY8z3Wjyw8wh7903zxKoml194BhdsqTFaCSB1Ra09q/OSIK5GsvUCtIrR1PFoEPjgKY2P8we7upF5iA5VBgDyjCpEAqyqsNgPSMNljK08m7H150PtNIytIcSIH6IFdAASwXwKP318kbt/uo2n9s3Rtk2yymqSzKe92ML3NYGXEvQPMTUW8itbz+D/u3Izowp0q0ctsDSbdfpJj16WMToyRpak/6OMfDZS3W5XXlipynvsSb4bKpVjkxQiikx82qlAtcp0B777k93c9oOH2TOv8ZtTmLCO9StYo6n5lkag8XvzNP2Ura9byxvP28T6qYhVY1D3IEsEm3bwJEHRp6kOM/fYzcw/cw+k+1g+kuHJEdJkEc+vEYYjZElA6AV4totNu/jKEAY1RMZo2waz3hhjp29l2fo3INXTacsk2lsGXhWr3Opva3hsb5fvP/QED+44wFziYaMmqddAhxOkRvClQ9aepj+7my0r6/zvX7mYKy9Zx/IIKhZCm+HLAA8lBSKlgAM9FyPUIFsxDMMTrrV83Mwt0IAOv1tAZxy0U1nnv9UWVKVBGsDhHvz4yTa3fPc+Hn76ILa6DK8xifVjAg98MXg6I7AJdS+j7ve5+Ox1bFw5wqbVy1mzPGS85sSKTlOqZoZK7ylaT9/D4T33Eui9jFZbBHQwmaAkROkIjCUOLHElQoyltWjppU2ScDXNLZfSWPcLxCvOouetoC2jmAC6Ccwvws49Czz4+E4e3LGPlg7JolH6EpJoD/EjrB/RXjiC7RxmsmHZumkFV1x0Br+wZRkr6+BnkjN2abvyYXv2eRnxcjLX+rlb3TrWeuTAcGNckZQgoJcaWn0L9RHSGB7cnvDtu37M/U/u4bCuQG2CMK4jKgIvxvd8MBmkbRp+jxV1jw3Lm2xZs5yNq5YzOVpltAEr6jBiZwk6Ozm86y7m9/6QKN1BTY4Q24R6GBISkCWZa4QRVmn1PVppjXh0C801lzCy8Qp0cxOdcJxDfTjYhv1zhl17D7H7wAy7DxxhMfVo2wqpV8P6VVIt6CxD2QRJW9CfZXlNuPT8jbzljedy5mkBdQWB0US4TD3nriycE7ZMay0Ky7zimGsVOXNzGErBWBE8o1Fi0VmCF0Rk+LQSSxbUCUd89szADx95mv/7gweZ7giLCah4DL+2HII6fhAThx6m38LPFomyLiOhMNmIWTleZ/WKJlOjMeesX85p44awv53Zp79HdujH1JPdNM0sdXqEYtDaoFVEzxuh5a0gq66jsXorzTVvoBefyY4ZeOrQAnvm++xr9dl7eJ6ZVptuahGvStRYhvbqtPsao8VlOiZd0oUDjAVtzt4wwSXnbuKSc9azaQqCFGx/kUYlHGQJ5N4159ezOdgcrPJemcyVXGO1OajMExf3VdbiWQ1i0FmKHwRE1Ro9LbR6Gr/SIKzAvIH7d3b54SPbue+hJzg4r0mDcWw0hlcdI6o1MDrFVxZPp/hZn9Ak1AJLNbBEpIzXQlaPBaxs9mjq3Sw3O9hUn2VK9mJnn2IkStHW0g8m6FXXccg/nQPZJDMyScdbw6HOGHvnDPvnO3QJSLyIVPmoMCaMa1gCun1NP9HOp5708HSPhm9YFqe86dzVXLZ1C2dtqhEL+CkEkuKjCcu6IAVYz7k8Xacvk0ck/Vcoc3EliGy55+Y1lfKunYgp28845H1EVG24wUoNYbOO9uGZFjz61AEeemIf256eZfeRhI5UsXED4wd4UUwlqhB6Hr7NiD1LICm636FRiVGZE9/LvFnWBYe5YLLLmY39VDtPMhq0yKyhHa5kxlvPtoVVPDgdsafXoBtMYYIVJFRJxSNTPlr5WOWTZJoky4jCiLTfw6R9IjJqKmGqGXHelrVs3bKSN5wxylQDIg+ynuDblDh0Y5ClKWHkqt2UYbrSg1yA9Z8/zvOyMbdgcdHjdYCeljwVwyCSUalEDr9rLJ4XkWlBGwgrFeY6bSrNEfBh/yw89OQ0P3l8Lz/bdYR9CwlqZDkLGjJCvCDGRxEFHpFvwWoi38ekKUpn1EybKTnCGfUZLpma4axlLYL+DsRTHDaTbF9czgMzU2zvLGMxXo03uopWP8XgI0aRZa6vgqd8l+urU6zuQdahonqsHAk4Z8NyfuGs9Zx/xkrWjUFVoL/QxmpDrVolCnwXZ5Vjc6Ek97QNWEtuoj0PI15O5haBZCO516iowZSn+yvlstvCwMdTPlpbgiByfYp6XaJKSLvTIcmEqD6OX/U52IKHdszz6K5p7nvyGfbN91nUPipuIsolVTuPk+B5AXFYxVchVTS15Aj13tOc0TzMhaf7TFQWwVPsWYj52QGfnZ0p2tF62v44C9rZr1mW4Fuo+EGeBtrFJD18SanHwtRYzOu3rOKN523mnA0VxqugMsHPegRZSqgUtVoDpRSdTgcRoVqJBxig4YQ45RJpitw9bwmi8RQxt9frSXHh5z3wqEJiS0kwVg++leFj3STwlELrDG1d+VkvqmK8gJ5Ax8L0Ajy++zD3/WwHj+7Yx5FFjVYxKqxgVYjyqkiOzwywxCqjonrUvDax6jE+GrtAug5pZxU6pk7PVkmJ0cojkz6eZ0g7C6i0RyOAZiBMjlRYNznCm37hHNZNjbJ2BTQi8LRrGxtgUNagTJ4fpI79GR6VwdgMF2V79lEbJt/30Vq7rI8o4vik6fNTydxBccnnOPCF9uUXmByeUq6GsjWulpTvfMaZQCquOWRfXKft/UfgmYNz7Nw3w+4DMxye73JotovJkftY14TC82SQguG5yjaZdVuBLZAZKi9mQsL4aI3xZo1VE86ePm1ZkzUTddau8GiGUA9cYVyyFGxC4OEAAcbie1FZ1nC4C2jx+wuN3wuR7/s5iF8Rx/Eri7kvfCeG9qicIXnVF4NCVIDxQrRSZEAqkBhY6MFCAk/sPkQ3NSwsLDJ7ZI7Z2Xnm5+dpt9ukaYrJS+VHlQrVWo16vU6j0aRaq1EJPTasmWSiWWOkXmW0XmFyTDESQ8WHKjgggLWIThGTEfguawIRkjTD86McevPs43GizC144HneyWfu8YvlZ6fnO9/ho/KgAC72quxQNUnloTwfbSypcTXl/KiCHzrYZ08gcdBjjAWtwRjIS0Pnit6APA98f/ATeuBrqIdujlmTVy63oJMEdOYq3AQuvix5diLk5YesJQjj5zVlTjSTUcRZG77vnzTmHndU6IQeXi0pQ+3+XzhDcJZhv9MliiIaoY8WS5a1MZnrKF31Aqp+1bVHloFTxXoDaJCfN8wkR+YUniIv7wpmrSZQvmtSpTV4HoHvE4SewyhZAeUqAliRHCwInhcQRE6rXqIRHzUeJ2WlDYn54fu85P65wxc50Qd7PiqUC4PDQRVlMAqoVFyp5xXrjGtdgyXwcP3+AJN28cXPkwictl6UEiZPfxQkR264u5XJowqM74qIogTrDUeO3PMZEUS7/rpOJwjLdzp6ZJ5trE7W+A0z+ESvWTL3RGfe856vXH3/gfaonAKUr2IjkFnrygMCyouJKq7NeWoS0n5KrHK4DLnJ4OU45dz8sDl4W3LwehG1KtAdRrkOoV5Rxs+4am8qh/QEYZhjpwbpoM5md7HlIBoIuWd715PF3KNNoJOycv1jSuu+OHqhl/PVoKq6C8irUoQKghd4eHmClbGGNDNOpqLwg8hVQBUojApRA+PCgeNcsdBBaK1I+yZHL6myP5HvB1hlHGbKczWsVAnVySeNcX194zjADwLSLGUJHvEkiOFnG7/h657whJGTVtPghehoO/C5jni2QRPIS/fmhZDIHbYsPWXY5SeUSUSossTQYEKo4Zvm5QiPfZoBPb/78JVIx61QnRwqVpUM/VB+MsDZD/84ssecNzTQuTRwV1jKlMGRgzsU/t/hXhFHn7V0t311MbWgU8dcGfplULGk/KwQpcPgbIa+dbr1EFNFhli1dNKUq5Oin4Bacs0BQuKF2Dd4qhOt6/Fy0CleuUdT7p8uh+3ZVy1AUQNq+MyB2B1ed0KRFT9comvJEUcxdimDT9EudQroFDJXDf1TMPXonXiQgHX0md7wNY65tAyM3KGJUniUhKUZb2rJkcMsPta5v1SivLrW7qljrjp6V3uuqMexA/jcQ1p840olHSsBnnsdPvve/1yRm1cXUws6Rcw9WnSqoRWx9DjvGGGZ/14eOiS2BYr6yFI4Rsp72aOu4h91t2OVusH1j/77Nea+SHo29g4UJEdH/w5lDeTc8yQs+fOoKxaidqkgPvY5nkutOlYSvJrouCPCRdSjqBU1TFrr0uDu9/sAef+74jyVt6pxg2SfpUV5WWtKXG8AyDHRqYGy2avvUBRDA220yzBIk3RoTat8sbtGzVnmOoD2+/3S61Qc2ev1KRpiWEv5u9aD5z2asVprtNY8F4m4/n/PNlanko6buZ7nla6wNE3LF+h0OgTBQAAUnq44jsvz2u22q/4ioLVZ4mITEbIsQ0TKeGYQhIPJkBfYSpIM8Ajy8g7F4GrtOlhW4oj24qJjg7iuob1uj9APicOYLMuI49j1+xkCtFWrtXIydTpdipZug9Zuqpy8xQQOggDP8+j1euUkBkhTl1XQ6XSI4xjf9+l2u8c7xCedXhSWo4g3BkGAUoooiqjX6+UsTZKEcKgsUafTAaDRaOSNHQZNL4pVVMBKht2fSZKgtV7iRI/jmDRNUco1sgqCgFarRaVSKc+p1+vAwG03PInCMDzGZbh7924Aoiii1WrRbDax1tJqtcrnKe5VPM/wOFSrVeI4pt/vIyJEUYTWmkZjkItbq9WWTIBTSS9KLBflAz3PQ2tNlmVYa/nMZz7D+Pg473nPe5aIq1qt5jqK2UEb0eL7SqWC53mkaUq326Xb7ZZirFKplCt/UEBbaLfbAKXkGB0dLb8rVmW73S5Fb8H44esA9Ho9brzxRq666iq+/e1vl9fqdDpcccUVbNmyhYceeggYwF/CMCRN0/L9i3ex1lKpVErGt1otgHLF9vv98l1ONR03c4uZWwxSlmWubx3wpS99iauvvpq7776bHTt2lN8Xq6zABXW73fIcGOzLtVqNWq225LuCCkmglGJiYoKDBw9Sq9XKZyn2+CzLSNOURqOxZJsonr04TkSoVCpYa3n88cfLFW2M4a//+q/Zu3cvf/AHf8D5559PlmUkSVJeL4oiPM+j0+mUnxfiOcvc9rBs2TJEpHzuXq93vEN88kmOk7TWIiKSJImIiMzOzoqIyJ133ilKKXnmmWcEkI997GMiItLv98tzjTEiIrK4uCgiIt1ud8m1Dx8+XP5+5MgRERGx1pbHLS4uirVW5ubmlty7eJZeryciIp1OR0REZmZmRESk3W6Xx4iIpGlaXvPmm28WQH784x9Lv9+XG2+8UZYtWyYf+chHlhxfPIuISJZlx4zLgQMHnnPMiuc8ePDgcx7zP0nHzdyCQUfT7/zO78jb3vY2ERG56qqr5MILL5SFhQURcYPx9a9/XUZGRkQpJSMjI6Vxeeutt8r27dvlxhtvlPHxcXn00UfLa2qt5V3vepecffbZJUM/+clPysqVK+XOO++UqakpCcNQ/vIv/7J8rl/+5V+WyclJAWTlypXyrW99a8lzJkmy5B1uvPFGAWT79u3y0EMPCSC/+7u/WzL00KFDIuIm2+///u9LrVYTQFavXi2f+cxnRMQx9rLLLpNf+qVfWnIva628613vko0bN5bXeznouJkrMpi5xQO3Wi1pNpvysY99TKy18tWvflU8z5O77757yfEFs9M0ld/4jd+QRqNRXuOWW24RQA4dOlSuQBGRyy+/XDZt2iQibgV++tOfFkCiKJJt27Ytea7169fLWWedVU6Ef/qnf5Jmsynf+c53ylUnMliBCwsL8pWvfEVGR0flP/7jP6TRaMiZZ55ZHldIqZmZGXnnO98pwwLupptukmXLlsnnP/95ERH5sz/7M6lUKrJv377y+ZMkkUajIe9///tfzPCedHpRzC0YUvz7ta99TQC56667RETk4YcfluXLl8t73vOe8pxer1cO6sMPPywjIyPyiU98QkSceP7KV74iSil58sknl9zryiuvlI0bN5Z/f+YznxFAPvvZzy55hi9+8YtSqVRkx44dS85/61vfKldcccWSzwqmiYh8/etfF0DiOBagFOnFdqK1lh/84Ael6C4mqjFGPvrRj8qKFStERGT79u2ilCq3IxGRe+65RwB55JFHpN1uH8/Q/o/QizKFsiyj3+8ThiHWWr72ta/xute9jssuuwxjDK9//es544wzuO2225idnQWWYoKuvfZaTj/9dK655hoAqtUqYQ5vaTabpTYMTgmqVquA09Snp6ep1+tcddVV5WcAO3fuZGxsjI0bNy551snJSaanp5d8ppQqFZxut8vo6Ch//ud/ThzHXH/99YBTmrIsw/d97rnnHjZu3MiGDRsIgiDPfPBYvnx5aQFs2rSJq666iltuuaW8z1e/+lXWr1/P6aefTr1eP2FExUulF6Ut12q10rx45JFH+O53v8sll1xCmqalXXjFFVdQr9f52c9+hrW21IjvuOMOfvrTn3Lttdeyfv16Wq0WWZaVzoXp6enSPkyShFWrVrG4uMjCwgKe57Fp06bSvOn1esRxjIjwve99j9nZWYdZzpH6cRxzww03AJQTJkmSJQ6MOI5ptVq8+c1v5uMf/zhf+MIXuOGGG0q7G+Dpp59m586dXHjhhaWNPjExwfXXX8/s7Gz5bh/60Ie4//772bt3L+12m2984xu85S1vOcbuPtV03MwtBqWY+U888QSLi4t8+9vfpl6vly//z//8z8zMzPDNb34Tz/MYGRlBa82HP/xhrrjiCt773vcCboWEYUi1WiXLMlatWsWBAwcwxhDHMQcOHMD3fUZGRgDncCgcH8VgdbtdVq1axdq1azHGkKYpWmuSJEFEuP/++2k0GuUEKu7b6XRKBhpj+KM/+iMuv/xyPvzhD5f27czMDI1Gg7Vr17Jt2zZEhG63y+zsbIkxrlarzM7OcvXVVxOGITfddBP33nsvrVaLX/u1XwNYYhefcnoxMnzYhHn3u98tF198sezatWvJMf1+X97xjnfIxMSE7N27V0REbrjhBgHkzjvvFJGlJsW9994rgHzve98rP3vwwQdlYmJCtm7dKsYY0VrLpz71KYmiqDRztNZijJF//Md/FOAYs6jb7ZZ7fbHXFv92Oh351re+JbVaTb7//e+X7wXI2WefXZow//Iv/1Iqe2malucbY8pjint86EMfknPPPVc+8IEPyPnnn18+37ApdqrpuJnb6/XKgXvkkUekVqvJn/7pn4rI4AULU6NQVm6++Wax1koURfKRj3xEsiwTY0xp7xbXHR0dlSuvvFJERJ555hm55pprBJDNmzeXE+FTn/qUAHLPPfcsea6dO3fKunXr5H3ve1+pLc/Pz8v1118vn/jEJ8rJcPQgf+Mb3xBA7rvvvvKzf/3Xf5Vly5bJ7/3e75WT4+KLL5Zly5aVx8zNzclnP/tZ+Yd/+AfZv3+/iLjJcvvttwsg4+Pj8id/8ifl8caYl80celErV8QZ5n/zN38jk5OTx6zEwgExPT0tk5OT8qu/+qulPQlIs9ks7dCPfvSj5fH333+/+L4vvu/L1NSU3HTTTfKRj3xELrjgglKL/eM//mPZvHmz/PCHPzzmmaanp2VqakrGx8cFkMnJSfn0pz9daqoF00Xc6l1YWJAbbrhBli9fLrfccotorctVee2118qaNWvkc5/7nIg4s+mDH/yg+L5f2rm//du/LTt37lzyDK1WSwAZGxuTBx98sPzcWvuszo9TQS/aQ1XQ/Py8iAy8Qc9GxeAevWoKj5OIyL59+5Z8Nz09Xf7earVEZCBqi2OHxe2wbVw8Y/Fsw89Q3Hf4uOLc4nrFCitEbsGUYTPo6PfRWpfnn3POOXLxxRcvudewp+5U0ynELf980913383ll1/ObbfdxlVXXVUqUcaYEwb8v1R6mdS4nz/6u7/7O04//XTOO++8MmoGJ57JcSL02so9iTQ/P8/Y2BjgzLQiYP9y0WvMPcnU7XapVqtLMvVOdl7R8dJrYvkk09Fx5pdz7bzG3JNMRUC/8IB5nlcy+lTTa2L5JJHWuoQJxXHsyi1oXaI1Xg56beWeJCoCFoUC5XneEkDgy0Gn7M5HY3gLANnRVWCOhoIWUZ3jqRZzNF5p+J6FaNRaE8cx11133THHyhB89cVSwdRh/FZ4MhpUngCdMuYWdZYK5tVqNT772c+yfPlybr311nJga7VaiSD80Y9+xDnnnMNf/dVflSug+G6YChRitVpdgpL0fZ8sy1hcXCxDlUEQkKYp8/PzS84v4s7DUadXO50y5hYB8FqtViIFL730Uubm5vjud7+LUuqYVbpr1y52797N29/+dhYWFgBKOGuBaEzTtGQYOPHo+/6SPa/ZbJb3BAcSKJh95MgRbrvtNqIo4s477yxX4DCDX+7MgZdKp4y5YehamRY/ABdddBFvf/vb+epXvwoM6kGMj49jjOHLX/4yZ511Flu3bmVkZIQDBw6Unp8gCKhUKiUctlKpsGvXLlePsVpdAp6fmZkpRaTWml6vtwS4HkVRCR4vsh6KZykm5auSTq0rewA/LZz33/zmNyUMQ7n33ntFZBAseOCBBySKIvnbv/1bEXFIwze/+c1lhGlycrKM3PT7fWm1WnL55ZfLddddVwYzjDFyxx13yKpVq+Tf/u3fSif++Pi4/OEf/qE88sgj8r73va+85rJlywSQd77znUvi1EcHTV4tdMqZW0RYCiamaSqVSkWuueaaJZ9/4QtfkFqtJk888YSIiFxyySVy4403ltf5+Mc/LvV6Xe64447ys5UrV8qv//qvL7lfAVb72te+JiKOUYBcd911IuIiQN/4xjckCAK59dZbl5ybJMmrlrEiLxIgd6JUZAUAJb4oDEOuvPJK/v3f/51Op8PIyAhZlnH77bfzpje9iQ0bNgBOubrmmmvodDpkWcYHP/hBOp0OjzzySHn9Wq3G+Ph4ea8iK2BkZKQUs0fDhYrjlVLlft7v98scoSKd5NVIp4y5RZJYrVZjfn6+1GS11rz//e9Ha81Pf/pTALZt28btt9/OG97whnJPLQa4Xq8ThiEbNmwoUzsKJGIURfT7fbIsIwxD4jim0+mwsLCA7/tlJmGRmCb5vpumaWkKASWQbvjvVyOdsqceToYqIidhGBIEAVdffTWVSoXPfe5zADz88MN4nscHP/jBcoALZOPExARKKUZGRrDWMjk5SbfbRSlVOu2H7cuiWGaWZWVstUg7LVZzMUEKqVLkNb1qFamcXjFT8r3vfS933XUX3W6Xb37zm5xzzjls2bIFpRTbtm2j0Wjw4Q9/mIcffhgRYXZ2lkajwWOPPUaj0SghqcNQVqBEZtbr9RJ7LCL4vk+SJFhrWbduXelhAjchhtGRr63cE6Tf/M3f5PDhw3zxi1/k5ptv5tprrwVgYWGBRx99lE6nw9VXX81pp50GwJ49e6hWq2zZsoVOp8P09DQXXHABu3btYnFxsWTU7bffjta6BKgc/6dCAAACCklEQVQrpahUKjQaDeI4LkV4kVwOHJNn/HI5/k+UXjHMvfTSSznttNO47rrrEJES91utVlm3bh31ep3/+q//whjD3r17+eQnP8nhw4dZWFigXq8zNTXF+eefzw9+8AMeeOABAD71qU/x5S9/GaAEvBtj6Pf77Ny5E3DbxaZNmwC46667MMaUmQ5zc3NkWbYkz/fVRK8Y5lprefe7382aNWu49tprUUqVK+iiiy7i85//PF/60pcIgoBLL70UYwxve9vbqFar5X75F3/xF3zgAx/g8ssvRynF7t27+dznPsfk5GS5Svfv38+5557L2rVrS6/V6tWruf766/n7v/976vU6v/Vbv0W322V8fJxKpbLEVflqoldUyM8Yw/T0NKtXry7FZafTKc2mVqtVMrNSqWCMYXFxsVTQjkb3Ly4u0mw2S99yIWp37drFmjVrCIKgvA84rXm4vEKhZRf3f7XRK4a5w4yRvAhKFEWkaUoURcegCIfdkMUxBRVMBUrfs+d5pblTRG6MMaVtvbCwUKauyFHQmF6vV4rqVxO9YsTyMGKhYOzi4mLJ4GKwi6hSEASlj3qYsd1ul2azuQTmUkwaV2vZL+/h+z7NZhNjTMnY4XsVptGrkbHwClq5r9HJp1fMyn2NTj69xtyfY3qNuT/H9Bpzf47pNeb+HNNrzP05pteY+3NMrzH355j+Hznke7J/dCpkAAAAAElFTkSuQmCC;" vertex="1" parent="1">
          <mxGeometry x="20" y="70" width="58.76" height="80" as="geometry" />
        </mxCell>
        <mxCell id="WERZg9Btn-QXgwrThbyL-2" value="" style="shape=flexArrow;endArrow=classic;html=1;rounded=0;entryX=0;entryY=0.5;entryDx=0;entryDy=0;entryPerimeter=0;" edge="1" parent="1" target="WERZg9Btn-QXgwrThbyL-4">
          <mxGeometry width="50" height="50" relative="1" as="geometry">
            <mxPoint x="190" y="390" as="sourcePoint" />
            <mxPoint x="300" y="387" as="targetPoint" />
          </mxGeometry>
        </mxCell>
        <mxCell id="WERZg9Btn-QXgwrThbyL-3" value="Jenkins Plugin: &lt;br&gt;Azure KeyVault" style="edgeLabel;html=1;align=center;verticalAlign=middle;resizable=0;points=[];" vertex="1" connectable="0" parent="WERZg9Btn-QXgwrThbyL-2">
          <mxGeometry x="0.5102" y="13" relative="1" as="geometry">
            <mxPoint x="-20" y="-17" as="offset" />
          </mxGeometry>
        </mxCell>
        <mxCell id="WERZg9Btn-QXgwrThbyL-4" value="Jenkins Credentials" style="shape=cylinder3;whiteSpace=wrap;html=1;boundedLbl=1;backgroundOutline=1;size=12;" vertex="1" parent="1">
          <mxGeometry x="320" y="350" width="60" height="80" as="geometry" />
        </mxCell>
        <mxCell id="WERZg9Btn-QXgwrThbyL-5" value="jenkins cache tmp:&lt;div&gt;-app config&lt;/div&gt;" style="rounded=0;whiteSpace=wrap;html=1;" vertex="1" parent="1">
          <mxGeometry x="300" y="140" width="120" height="60" as="geometry" />
        </mxCell>
        <mxCell id="WERZg9Btn-QXgwrThbyL-6" value="Azure app config" style="rounded=0;whiteSpace=wrap;html=1;" vertex="1" parent="1">
          <mxGeometry x="57" y="170" width="120" height="60" as="geometry" />
        </mxCell>
        <mxCell id="WERZg9Btn-QXgwrThbyL-7" value="" style="curved=1;endArrow=classic;html=1;rounded=0;exitX=0.417;exitY=-0.033;exitDx=0;exitDy=0;exitPerimeter=0;entryX=0.5;entryY=0;entryDx=0;entryDy=0;" edge="1" parent="1" source="WERZg9Btn-QXgwrThbyL-6" target="WERZg9Btn-QXgwrThbyL-5">
          <mxGeometry width="50" height="50" relative="1" as="geometry">
            <mxPoint x="139" y="150" as="sourcePoint" />
            <mxPoint x="189" y="100" as="targetPoint" />
            <Array as="points">
              <mxPoint x="170" y="130" />
              <mxPoint x="240" y="120" />
            </Array>
          </mxGeometry>
        </mxCell>
        <mxCell id="WERZg9Btn-QXgwrThbyL-9" value="job: dump app config" style="text;html=1;align=center;verticalAlign=middle;whiteSpace=wrap;rounded=0;" vertex="1" parent="1">
          <mxGeometry x="200" y="90" width="60" height="30" as="geometry" />
        </mxCell>
        <mxCell id="WERZg9Btn-QXgwrThbyL-10" value="Form to modify app config within GUI and check the differences with the generated app config&lt;div&gt;&lt;br&gt;&lt;/div&gt;" style="rounded=0;whiteSpace=wrap;html=1;" vertex="1" parent="1">
          <mxGeometry x="530" y="170" width="120" height="90" as="geometry" />
        </mxCell>
        <mxCell id="WERZg9Btn-QXgwrThbyL-11" value="" style="curved=1;endArrow=classic;html=1;rounded=0;entryX=0.5;entryY=0;entryDx=0;entryDy=0;exitX=0.75;exitY=0;exitDx=0;exitDy=0;" edge="1" parent="1" source="WERZg9Btn-QXgwrThbyL-5" target="WERZg9Btn-QXgwrThbyL-10">
          <mxGeometry width="50" height="50" relative="1" as="geometry">
            <mxPoint x="450" y="380" as="sourcePoint" />
            <mxPoint x="500" y="330" as="targetPoint" />
            <Array as="points">
              <mxPoint x="430" y="110" />
              <mxPoint x="550" y="140" />
            </Array>
          </mxGeometry>
        </mxCell>
        <mxCell id="WERZg9Btn-QXgwrThbyL-12" value="job: upsert" style="text;html=1;align=center;verticalAlign=middle;whiteSpace=wrap;rounded=0;" vertex="1" parent="1">
          <mxGeometry x="440" y="90" width="60" height="30" as="geometry" />
        </mxCell>
        <mxCell id="WERZg9Btn-QXgwrThbyL-13" value="" style="curved=1;endArrow=classic;html=1;rounded=0;entryX=0.443;entryY=1.021;entryDx=0;entryDy=0;entryPerimeter=0;exitX=0.5;exitY=1;exitDx=0;exitDy=0;" edge="1" parent="1" source="WERZg9Btn-QXgwrThbyL-10" target="WERZg9Btn-QXgwrThbyL-6">
          <mxGeometry width="50" height="50" relative="1" as="geometry">
            <mxPoint x="450" y="380" as="sourcePoint" />
            <mxPoint x="500" y="330" as="targetPoint" />
            <Array as="points">
              <mxPoint x="450" y="290" />
              <mxPoint x="290" y="290" />
            </Array>
          </mxGeometry>
        </mxCell>
        <mxCell id="WERZg9Btn-QXgwrThbyL-14" value="Build with params:&lt;div&gt;az keyvault --value&lt;/div&gt;" style="text;html=1;align=center;verticalAlign=middle;whiteSpace=wrap;rounded=0;" vertex="1" parent="1">
          <mxGeometry x="313" y="290" width="120" height="30" as="geometry" />
        </mxCell>
      </root>
    </mxGraphModel>
  </diagram>
</mxfile>
